<?xml version="1.0" encoding="iso-8859-1"?>
<!-- Generator: Adobe Illustrator 19.0.0, SVG Export Plug-In . SVG Version: 6.00 Build 0)  -->
<svg version="1.1" id="Capa_1" xmlns="http://www.w3.org/2000/svg" xmlns:xlink="http://www.w3.org/1999/xlink" x="0px" y="0px"
	 viewBox="0 0 512 512" style="enable-background:new 0 0 512 512;" xml:space="preserve">
<path style="fill:#FE9923;" d="M378.401,153.285H133.599c-44.7,0-78.9-40.201-71.699-84.3c10.499-62.1,83.399-90,132.599-50.7
	l36.599,29.099h49.801L317.5,18.285c23.1-18.599,53.1-23.4,80.7-12.601c27.599,10.501,47.1,34.2,51.899,63.301
	C457.301,113.085,423.1,153.285,378.401,153.285z"/>
<path style="fill:#FE8821;" d="M378.401,153.285H256v-105.9h24.901l36.599-29.1c23.1-18.599,53.1-23.4,80.7-12.601
	c27.599,10.501,47.1,34.2,51.899,63.301C457.301,113.085,423.1,153.285,378.401,153.285z"/>
<path style="fill:#FC1A40;" d="M451,301l-45.901,45L451,392v75c0,24.899-20.099,45-45,45H106c-24.901,0-45-20.101-45-45v-75
	l37.5-40.201L61,301v-75c0-8.401,6.599-15,15-15h360c8.401,0,15,6.599,15,15V301z"/>
<path style="fill:#C60034;" d="M451,301l-45.901,45L451,392v75c0,24.899-20.099,45-45,45H256V211h180c8.401,0,15,6.599,15,15V301z"
	/>
<path style="fill:#FCBF29;" d="M256,31c-41.4,0-75,33.6-75,75v30c0,8.399,6.599,15,15,15h120c8.401,0,15-6.601,15-15v-30
	C331,64.6,297.4,31,256,31z"/>
<path style="fill:#FF3E75;" d="M436,121H76c-24.901,0-45,20.099-45,45v60c0,8.399,6.599,15,15,15h420c8.401,0,15-6.601,15-15v-60
	C481,141.099,460.901,121,436,121z"/>
<path style="fill:#FC1A40;" d="M61,301v91h390v-91H61z"/>
<path style="fill:#FEA832;" d="M316,151h-60V31c41.4,0,75,33.6,75,75v30C331,144.399,324.401,151,316,151z"/>
<rect x="256" y="301" style="fill:#C60034;" width="195" height="91"/>
<path style="fill:#FC1A40;" d="M481,166v60c0,8.399-6.599,15-15,15H256V121h180C460.901,121,481,141.099,481,166z"/>
<path style="fill:#FCBF29;" d="M211,121v391h90V121H211z"/>
<rect x="256" y="121" style="fill:#FE9923;" width="45" height="391"/>
<path style="fill:#FEDB41;" d="M211,121v120h90V121H211z"/>
<rect x="256" y="121" style="fill:#FCBF29;" width="45" height="120"/>
<g>
</g>
<g>
</g>
<g>
</g>
<g>
</g>
<g>
</g>
<g>
</g>
<g>
</g>
<g>
</g>
<g>
</g>
<g>
</g>
<g>
</g>
<g>
</g>
<g>
</g>
<g>
</g>
<g>
</g>
</svg>
